<svg id="visual" viewBox="0 0 1980 1080" width="1980" height="1080" xmlns="http://www.w3.org/2000/svg" xmlns:xlink="http://www.w3.org/1999/xlink" version="1.1"><rect x="0" y="0" width="1980" height="1080" fill="#001220"></rect><path d="M0 658L47.2 667.7C94.3 677.3 188.7 696.7 283 712.3C377.3 728 471.7 740 566 736.8C660.3 733.7 754.7 715.3 848.8 715.3C943 715.3 1037 733.7 1131.2 726.7C1225.3 719.7 1319.7 687.3 1414 670.3C1508.3 653.3 1602.7 651.7 1697 651.7C1791.3 651.7 1885.7 653.3 1932.8 654.2L1980 655L1980 1081L1932.8 1081C1885.7 1081 1791.3 1081 1697 1081C1602.7 1081 1508.3 1081 1414 1081C1319.7 1081 1225.3 1081 1131.2 1081C1037 1081 943 1081 848.8 1081C754.7 1081 660.3 1081 566 1081C471.7 1081 377.3 1081 283 1081C188.7 1081 94.3 1081 47.2 1081L0 1081Z" fill="#fa7268"></path><path d="M0 745L47.2 749.8C94.3 754.7 188.7 764.3 283 759.2C377.3 754 471.7 734 566 739.3C660.3 744.7 754.7 775.3 848.8 791.5C943 807.7 1037 809.3 1131.2 794.3C1225.3 779.3 1319.7 747.7 1414 735C1508.3 722.3 1602.7 728.7 1697 748.3C1791.3 768 1885.7 801 1932.8 817.5L1980 834L1980 1081L1932.8 1081C1885.7 1081 1791.3 1081 1697 1081C1602.7 1081 1508.3 1081 1414 1081C1319.7 1081 1225.3 1081 1131.2 1081C1037 1081 943 1081 848.8 1081C754.7 1081 660.3 1081 566 1081C471.7 1081 377.3 1081 283 1081C188.7 1081 94.3 1081 47.2 1081L0 1081Z" fill="#ef5f67"></path><path d="M0 898L47.2 883.3C94.3 868.7 188.7 839.3 283 821.8C377.3 804.3 471.7 798.7 566 813.2C660.3 827.7 754.7 862.3 848.8 865.8C943 869.3 1037 841.7 1131.2 824.5C1225.3 807.3 1319.7 800.7 1414 806.7C1508.3 812.7 1602.7 831.3 1697 850.3C1791.3 869.3 1885.7 888.7 1932.8 898.3L1980 908L1980 1081L1932.8 1081C1885.7 1081 1791.3 1081 1697 1081C1602.7 1081 1508.3 1081 1414 1081C1319.7 1081 1225.3 1081 1131.2 1081C1037 1081 943 1081 848.8 1081C754.7 1081 660.3 1081 566 1081C471.7 1081 377.3 1081 283 1081C188.7 1081 94.3 1081 47.2 1081L0 1081Z" fill="#e34c67"></path><path d="M0 965L47.2 959.5C94.3 954 188.7 943 283 943.7C377.3 944.3 471.7 956.7 566 956.5C660.3 956.3 754.7 943.7 848.8 939.3C943 935 1037 939 1131.2 946.3C1225.3 953.7 1319.7 964.3 1414 956.7C1508.3 949 1602.7 923 1697 908.3C1791.3 893.7 1885.7 890.3 1932.8 888.7L1980 887L1980 1081L1932.8 1081C1885.7 1081 1791.3 1081 1697 1081C1602.7 1081 1508.3 1081 1414 1081C1319.7 1081 1225.3 1081 1131.2 1081C1037 1081 943 1081 848.8 1081C754.7 1081 660.3 1081 566 1081C471.7 1081 377.3 1081 283 1081C188.7 1081 94.3 1081 47.2 1081L0 1081Z" fill="#d53867"></path><path d="M0 968L47.2 968.3C94.3 968.7 188.7 969.3 283 972.5C377.3 975.7 471.7 981.3 566 991.5C660.3 1001.7 754.7 1016.3 848.8 1020.3C943 1024.3 1037 1017.7 1131.2 1014C1225.3 1010.3 1319.7 1009.7 1414 1000.2C1508.3 990.7 1602.7 972.3 1697 968.2C1791.3 964 1885.7 974 1932.8 979L1980 984L1980 1081L1932.8 1081C1885.7 1081 1791.3 1081 1697 1081C1602.7 1081 1508.3 1081 1414 1081C1319.7 1081 1225.3 1081 1131.2 1081C1037 1081 943 1081 848.8 1081C754.7 1081 660.3 1081 566 1081C471.7 1081 377.3 1081 283 1081C188.7 1081 94.3 1081 47.2 1081L0 1081Z" fill="#c62368"></path></svg>